<svg xmlns="http://www.w3.org/2000/svg" width="375" viewBox="0 0 375 375" height="375" version="1.0"><defs><clipPath id="a"><path d="M 9.316406 36 L 361 36 L 361 341.316406 L 9.316406 341.316406 Z M 9.316406 36"/></clipPath><clipPath id="b"><path d="M 91.238281 55.242188 L 242.738281 55.242188 L 242.738281 206.742188 L 91.238281 206.742188 Z M 91.238281 55.242188"/></clipPath><clipPath id="c"><path d="M 270.230469 144.792969 L 337.730469 144.792969 L 337.730469 212.292969 L 270.230469 212.292969 Z M 270.230469 144.792969"/></clipPath><clipPath id="d"><path d="M 53.726562 206.402344 L 102.476562 206.402344 L 102.476562 255.152344 L 53.726562 255.152344 Z M 53.726562 206.402344"/></clipPath><clipPath id="e"><path d="M 84.375 191.183594 L 109.125 191.183594 L 109.125 215.933594 L 84.375 215.933594 Z M 84.375 191.183594"/></clipPath><clipPath id="f"><path d="M 175 324 L 183 324 L 183 337.527344 L 175 337.527344 Z M 175 324"/></clipPath><clipPath id="g"><path d="M 182 324 L 192 324 L 192 337.527344 L 182 337.527344 Z M 182 324"/></clipPath><clipPath id="h"><path d="M 166 324 L 174 324 L 174 337.527344 L 166 337.527344 Z M 166 324"/></clipPath><clipPath id="i"><path d="M 158 324 L 167 324 L 167 337.527344 L 158 337.527344 Z M 158 324"/></clipPath><clipPath id="j"><path d="M 153.519531 301 L 195.519531 301 L 195.519531 324 L 153.519531 324 Z M 153.519531 301"/></clipPath><clipPath id="k"><path d="M 168 286.527344 L 179 286.527344 L 179 301 L 168 301 Z M 168 286.527344"/></clipPath><clipPath id="l"><path d="M 37.5 178 L 80.25 178 L 80.25 205 L 37.5 205 Z M 37.5 178"/></clipPath><clipPath id="m"><path d="M 37.523438 159.523438 L 80.226562 176.296875 L 80.226562 206.019531 L 37.523438 189.246094 Z M 37.523438 159.523438"/></clipPath><clipPath id="n"><path d="M 37.5 160 L 80.25 160 L 80.25 189 L 37.5 189 Z M 37.5 160"/></clipPath><clipPath id="o"><path d="M 37.523438 159.523438 L 80.226562 176.296875 L 80.226562 206.019531 L 37.523438 189.246094 Z M 37.523438 159.523438"/></clipPath><clipPath id="p"><path d="M 40 151.261719 L 80 151.261719 L 80 174 L 40 174 Z M 40 151.261719"/></clipPath></defs><path fill="#FFF" d="M-37.5 -37.5H412.5V412.5H-37.5z"/><path fill="#FFF" d="M-37.5 -37.5H412.5V412.5H-37.5z"/><path fill="#FFF6F4" d="M-37.5 -37.5H412.5V412.5H-37.5z"/><g clip-path="url(#a)"><path fill="#EF7C8E" d="M 168.5 341.316406 C 151.117188 340.96875 132 331.925781 114.621094 319.054688 C 99.675781 307.921875 89.941406 292.964844 81.601562 276.617188 C 72.910156 259.570312 74.996094 260.617188 56.574219 255.398438 C 51.707031 254.007812 46.84375 251.570312 41.976562 249.832031 C 20.773438 241.136719 11.734375 224.4375 9.996094 202.871094 C 9.648438 198.351562 9.648438 193.828125 9.996094 189.652344 C 10.34375 179.21875 14.863281 169.480469 22.164062 162.171875 C 34.675781 148.957031 50.664062 138.519531 67.699219 132.605469 C 71.867188 131.214844 76.039062 129.476562 80.210938 128.085938 C 86.121094 125.996094 90.289062 120.082031 89.59375 113.824219 C 89.246094 107.910156 89.59375 102.34375 89.941406 96.429688 C 93.417969 69.296875 112.535156 46.6875 138.605469 38.6875 C 156.332031 33.816406 175.101562 36.601562 190.742188 46.339844 C 194.914062 49.46875 198.738281 52.949219 201.867188 57.121094 C 205.34375 61.992188 211.597656 64.078125 217.160156 62.6875 C 218.898438 62.339844 220.289062 61.644531 221.679688 60.601562 C 240.101562 49.46875 258.175781 54.339844 275.554688 62.6875 C 292.933594 71.035156 302.667969 85.296875 308.230469 103.039062 C 310.660156 110.691406 312.746094 118.34375 314.136719 126.34375 C 315.179688 135.738281 321.089844 144.085938 329.777344 148.609375 C 340.207031 154.519531 348.898438 163.21875 354.804688 173.652344 C 365.234375 192.4375 361.757812 216.089844 346.464844 231.394531 C 332.90625 244.960938 315.179688 254.355469 296.410156 257.832031 C 295.367188 257.832031 294.324219 258.179688 293.28125 258.179688 C 280.074219 259.222656 268.257812 267.226562 262.347656 278.703125 C 252.613281 295.75 238.710938 310.011719 222.375 320.445312 C 216.464844 324.273438 210.902344 328.445312 204.996094 331.925781 C 193.175781 339.578125 186.921875 341.316406 168.5 341.316406 Z M 168.5 341.316406"/></g><g clip-path="url(#b)"><path fill="#FDBABE" d="M 117.648438 184.011719 C 131.078125 196.527344 148.429688 203.371094 166.9375 203.371094 C 206.875 203.371094 239.367188 170.878906 239.367188 130.941406 C 239.367188 91.003906 206.875 58.507812 166.9375 58.507812 C 148.429688 58.507812 131.082031 65.355469 117.644531 77.867188 L 155.621094 77.867188 C 156.535156 77.867188 157.273438 78.605469 157.273438 79.519531 L 157.273438 89.339844 C 157.273438 90.25 156.53125 90.992188 155.621094 90.992188 L 106.507812 90.992188 C 105.335938 92.765625 104.234375 94.597656 103.21875 96.46875 L 130.8125 96.46875 C 131.726562 96.46875 132.464844 97.210938 132.464844 98.121094 L 132.464844 107.941406 C 132.464844 108.859375 131.726562 109.59375 130.8125 109.59375 L 97.703125 109.59375 C 97.148438 111.398438 96.660156 113.230469 96.246094 115.074219 L 144.253906 115.074219 C 145.164062 115.074219 145.90625 115.8125 145.90625 116.726562 L 145.90625 126.546875 C 145.90625 127.460938 145.164062 128.203125 144.25 128.203125 L 94.558594 128.203125 C 94.523438 129.113281 94.503906 130.03125 94.503906 130.941406 C 94.503906 131.839844 94.523438 132.746094 94.554688 133.679688 L 119.273438 133.679688 C 120.191406 133.679688 120.929688 134.417969 120.929688 135.332031 L 120.929688 145.152344 C 120.929688 146.0625 120.191406 146.804688 119.273438 146.804688 L 96.25 146.804688 C 96.664062 148.636719 97.152344 150.46875 97.707031 152.28125 L 127.195312 152.28125 C 128.109375 152.28125 128.847656 153.023438 128.847656 153.9375 L 128.847656 163.753906 C 128.847656 164.667969 128.109375 165.40625 127.195312 165.40625 L 103.222656 165.40625 C 104.242188 167.277344 105.339844 169.109375 106.515625 170.886719 L 146.320312 170.886719 C 147.230469 170.886719 147.972656 171.625 147.972656 172.539062 L 147.972656 182.355469 C 147.972656 183.273438 147.230469 184.011719 146.316406 184.011719 Z M 166.9375 206.679688 C 156.472656 206.679688 146.335938 204.582031 136.808594 200.445312 C 127.613281 196.457031 119.410156 190.757812 112.417969 183.507812 C 111.957031 183.027344 111.824219 182.324219 112.085938 181.714844 C 112.347656 181.101562 112.945312 180.703125 113.605469 180.703125 L 144.664062 180.703125 L 144.664062 174.191406 L 105.632812 174.191406 C 105.085938 174.191406 104.574219 173.921875 104.265625 173.46875 C 102.320312 170.605469 100.554688 167.585938 99.023438 164.488281 C 98.769531 163.972656 98.796875 163.367188 99.101562 162.882812 C 99.40625 162.398438 99.933594 162.101562 100.507812 162.101562 L 125.542969 162.101562 L 125.542969 155.589844 L 96.5 155.589844 C 95.785156 155.589844 95.148438 155.128906 94.925781 154.449219 C 93.964844 151.496094 93.179688 148.472656 92.59375 145.464844 C 92.5 144.980469 92.628906 144.480469 92.941406 144.101562 C 93.253906 143.71875 93.722656 143.496094 94.21875 143.496094 L 117.621094 143.496094 L 117.621094 136.984375 L 92.980469 136.984375 C 92.109375 136.984375 91.382812 136.304688 91.332031 135.429688 C 91.242188 133.886719 91.199219 132.375 91.199219 130.941406 C 91.199219 129.453125 91.242188 127.941406 91.328125 126.453125 C 91.378906 125.578125 92.105469 124.894531 92.980469 124.894531 L 142.597656 124.894531 L 142.597656 118.378906 L 94.214844 118.378906 C 93.71875 118.378906 93.25 118.160156 92.9375 117.78125 C 92.625 117.398438 92.496094 116.898438 92.589844 116.414062 C 93.179688 113.382812 93.960938 110.359375 94.917969 107.429688 C 95.140625 106.75 95.777344 106.289062 96.488281 106.289062 L 129.160156 106.289062 L 129.160156 99.777344 L 100.5 99.777344 C 99.929688 99.777344 99.394531 99.480469 99.09375 98.996094 C 98.789062 98.507812 98.761719 97.902344 99.015625 97.390625 C 100.550781 94.292969 102.316406 91.269531 104.261719 88.40625 C 104.570312 87.957031 105.082031 87.683594 105.628906 87.683594 L 153.964844 87.683594 L 153.964844 81.171875 L 113.605469 81.171875 C 112.941406 81.171875 112.34375 80.777344 112.085938 80.167969 C 111.824219 79.554688 111.953125 78.847656 112.414062 78.371094 C 119.40625 71.125 127.613281 65.421875 136.808594 61.429688 C 146.335938 57.296875 156.46875 55.203125 166.9375 55.203125 C 187.167969 55.203125 206.183594 63.082031 220.488281 77.382812 C 234.796875 91.6875 242.675781 110.707031 242.675781 130.941406 C 242.675781 151.167969 234.796875 170.1875 220.488281 184.492188 C 206.1875 198.800781 187.164062 206.679688 166.9375 206.679688 Z M 166.9375 206.679688" fill-rule="evenodd"/></g><path fill="#FDBABE" d="M 191.535156 81.300781 C 180.476562 81.300781 171.484375 90.296875 171.484375 101.351562 C 171.484375 112.410156 180.476562 121.402344 191.535156 121.402344 C 202.59375 121.402344 211.585938 112.410156 211.585938 101.351562 C 211.585938 90.296875 202.59375 81.300781 191.535156 81.300781 Z M 191.535156 124.710938 C 178.652344 124.710938 168.175781 114.230469 168.175781 101.351562 C 168.175781 88.472656 178.652344 77.992188 191.535156 77.992188 C 204.414062 77.992188 214.894531 88.472656 214.894531 101.351562 C 214.894531 114.230469 204.414062 124.710938 191.535156 124.710938 Z M 191.535156 124.710938" fill-rule="evenodd"/><path fill="#FDBABE" d="M 191.535156 91.636719 C 186.175781 91.636719 181.820312 95.992188 181.820312 101.351562 C 181.820312 106.707031 186.175781 111.070312 191.535156 111.070312 C 196.890625 111.070312 201.25 106.707031 201.25 101.351562 C 201.25 95.992188 196.890625 91.636719 191.535156 91.636719 Z M 191.535156 114.375 C 184.355469 114.375 178.511719 108.535156 178.511719 101.351562 C 178.511719 94.171875 184.355469 88.328125 191.535156 88.328125 C 198.71875 88.328125 204.554688 94.171875 204.554688 101.351562 C 204.558594 108.535156 198.714844 114.375 191.535156 114.375 Z M 191.535156 114.375" fill-rule="evenodd"/><path fill="#FDBABE" d="M 191.535156 91.636719 C 190.621094 91.636719 189.878906 90.894531 189.878906 89.980469 L 189.878906 79.648438 C 189.878906 78.734375 190.621094 77.992188 191.535156 77.992188 C 192.445312 77.992188 193.1875 78.734375 193.1875 79.648438 L 193.1875 89.980469 C 193.1875 90.894531 192.445312 91.636719 191.535156 91.636719 Z M 191.535156 91.636719" fill-rule="evenodd"/><path fill="#FDBABE" d="M 197.21875 93.160156 C 196.9375 93.160156 196.652344 93.085938 196.390625 92.9375 C 195.601562 92.480469 195.332031 91.46875 195.789062 90.679688 L 200.957031 81.722656 C 201.414062 80.933594 202.425781 80.660156 203.214844 81.117188 C 204.007812 81.578125 204.277344 82.585938 203.824219 83.378906 L 198.652344 92.332031 C 198.347656 92.863281 197.789062 93.160156 197.21875 93.160156 Z M 197.21875 93.160156" fill-rule="evenodd"/><path fill="#FDBABE" d="M 201.382812 97.320312 C 200.8125 97.320312 200.257812 97.023438 199.949219 96.492188 C 199.492188 95.699219 199.765625 94.691406 200.554688 94.234375 L 209.507812 89.066406 C 210.300781 88.609375 211.3125 88.878906 211.765625 89.671875 C 212.226562 90.464844 211.953125 91.472656 211.160156 91.933594 L 202.210938 97.097656 C 201.949219 97.246094 201.660156 97.320312 201.382812 97.320312 Z M 201.382812 97.320312" fill-rule="evenodd"/><path fill="#FDBABE" d="M 213.238281 103.003906 L 202.902344 103.003906 C 201.988281 103.003906 201.25 102.265625 201.25 101.351562 C 201.25 100.4375 201.988281 99.695312 202.902344 99.695312 L 213.238281 99.695312 C 214.15625 99.695312 214.890625 100.4375 214.890625 101.351562 C 214.890625 102.265625 214.152344 103.003906 213.238281 103.003906 Z M 213.238281 103.003906" fill-rule="evenodd"/><path fill="#FDBABE" d="M 210.332031 113.859375 C 210.050781 113.859375 209.769531 113.789062 209.507812 113.640625 L 200.550781 108.46875 C 199.761719 108.011719 199.492188 107 199.945312 106.207031 C 200.40625 105.417969 201.414062 105.148438 202.207031 105.605469 L 211.160156 110.773438 C 211.953125 111.230469 212.222656 112.242188 211.765625 113.03125 C 211.460938 113.5625 210.90625 113.859375 210.332031 113.859375 Z M 210.332031 113.859375" fill-rule="evenodd"/><path fill="#FDBABE" d="M 202.390625 121.808594 C 201.816406 121.808594 201.261719 121.507812 200.957031 120.976562 L 195.789062 112.023438 C 195.332031 111.234375 195.601562 110.222656 196.390625 109.765625 C 197.183594 109.308594 198.191406 109.582031 198.652344 110.371094 L 203.820312 119.328125 C 204.277344 120.117188 204.003906 121.128906 203.214844 121.582031 C 202.953125 121.734375 202.671875 121.808594 202.390625 121.808594 Z M 202.390625 121.808594" fill-rule="evenodd"/><path fill="#FDBABE" d="M 191.535156 124.710938 C 190.621094 124.710938 189.878906 123.96875 189.878906 123.058594 L 189.878906 112.722656 C 189.878906 111.804688 190.621094 111.070312 191.535156 111.070312 C 192.445312 111.070312 193.1875 111.804688 193.1875 112.722656 L 193.1875 123.058594 C 193.1875 123.96875 192.445312 124.710938 191.535156 124.710938 Z M 191.535156 124.710938" fill-rule="evenodd"/><path fill="#FDBABE" d="M 180.679688 121.808594 C 180.398438 121.808594 180.113281 121.734375 179.855469 121.582031 C 179.0625 121.128906 178.792969 120.117188 179.25 119.328125 L 184.417969 110.371094 C 184.875 109.582031 185.882812 109.308594 186.675781 109.765625 C 187.46875 110.222656 187.738281 111.234375 187.28125 112.023438 L 182.113281 120.980469 C 181.808594 121.511719 181.25 121.808594 180.679688 121.808594 Z M 180.679688 121.808594" fill-rule="evenodd"/><path fill="#FDBABE" d="M 172.738281 113.859375 C 172.167969 113.859375 171.609375 113.5625 171.300781 113.03125 C 170.847656 112.242188 171.113281 111.230469 171.90625 110.773438 L 180.863281 105.605469 C 181.652344 105.148438 182.664062 105.417969 183.121094 106.207031 C 183.574219 107 183.308594 108.011719 182.515625 108.46875 L 173.5625 113.640625 C 173.304688 113.789062 173.015625 113.859375 172.738281 113.859375 Z M 172.738281 113.859375" fill-rule="evenodd"/><path fill="#FDBABE" d="M 180.164062 103.003906 L 169.832031 103.003906 C 168.917969 103.003906 168.175781 102.265625 168.175781 101.351562 C 168.175781 100.4375 168.917969 99.695312 169.832031 99.695312 L 180.164062 99.695312 C 181.078125 99.695312 181.820312 100.4375 181.820312 101.351562 C 181.820312 102.265625 181.078125 103.003906 180.164062 103.003906 Z M 180.164062 103.003906" fill-rule="evenodd"/><path fill="#FDBABE" d="M 181.6875 97.320312 C 181.40625 97.320312 181.121094 97.25 180.859375 97.097656 L 171.910156 91.929688 C 171.121094 91.472656 170.847656 90.460938 171.304688 89.667969 C 171.761719 88.878906 172.773438 88.609375 173.5625 89.066406 L 182.515625 94.238281 C 183.308594 94.691406 183.574219 95.703125 183.121094 96.492188 C 182.816406 97.023438 182.257812 97.320312 181.6875 97.320312 Z M 181.6875 97.320312" fill-rule="evenodd"/><path fill="#FDBABE" d="M 185.855469 93.160156 C 185.28125 93.160156 184.722656 92.863281 184.417969 92.332031 L 179.25 83.378906 C 178.792969 82.589844 179.0625 81.578125 179.855469 81.121094 C 180.644531 80.664062 181.65625 80.933594 182.113281 81.722656 L 187.28125 90.679688 C 187.738281 91.46875 187.46875 92.484375 186.675781 92.9375 C 186.417969 93.089844 186.132812 93.160156 185.855469 93.160156 Z M 185.855469 93.160156" fill-rule="evenodd"/><path fill="#FDBABE" d="M 191.535156 97.320312 C 189.3125 97.320312 187.503906 99.128906 187.503906 101.351562 C 187.503906 103.578125 189.3125 105.386719 191.535156 105.386719 C 193.757812 105.382812 195.5625 103.578125 195.5625 101.351562 C 195.566406 99.128906 193.753906 97.320312 191.535156 97.320312 Z M 191.535156 108.6875 C 187.488281 108.6875 184.195312 105.398438 184.195312 101.351562 C 184.195312 97.304688 187.488281 94.011719 191.535156 94.011719 C 195.582031 94.011719 198.871094 97.304688 198.871094 101.351562 C 198.871094 105.398438 195.582031 108.6875 191.535156 108.6875 Z M 191.535156 108.6875" fill-rule="evenodd"/><g fill="#FFE8E1" fill-opacity=".4"><g><g><path d="M 19.703125 -2.945312 C 30.410156 -5.015625 36.476562 -12.824219 40.042969 -25.707031 C 40.484375 -27.160156 37.371094 -28.722656 36.578125 -26.839844 C 34.886719 -22.90625 30.011719 -20.878906 25.699219 -20.046875 C 16.523438 -18.273438 11.078125 -22.558594 9.867188 -28.816406 C 8.535156 -35.699219 12.042969 -43.304688 18.371094 -44.527344 C 22.265625 -45.28125 24.484375 -42.753906 22.199219 -35.167969 C 21.730469 -33.492188 23.097656 -32.382812 25.046875 -32.761719 C 30.191406 -33.757812 36.335938 -41.148438 34.765625 -49.285156 C 33.609375 -55.265625 28.460938 -58.382812 19.628906 -56.675781 C 5.304688 -53.902344 -4.671875 -36.464844 -1.402344 -19.566406 C 1.285156 -5.660156 9.828125 -1.035156 19.703125 -2.945312 Z M 19.703125 -2.945312" transform="translate(118.539 223.373)"/></g></g></g><g fill="#FFE8E1" fill-opacity=".4"><g><g><path d="M 7.371094 -1.425781 C 12.308594 -2.378906 15.605469 -7.707031 17.300781 -13.878906 L 17.578125 -13.929688 C 17.859375 -7.996094 20.722656 -4.007812 25.519531 -4.933594 C 33.238281 -6.425781 34.96875 -18.015625 37.125 -25.140625 C 37.5625 -26.597656 34.378906 -28.144531 33.660156 -26.273438 C 32.699219 -23.78125 31.214844 -22.121094 28.851562 -21.664062 C 25.789062 -21.074219 24.488281 -23.707031 25.871094 -29.242188 C 26.621094 -33.570312 28.011719 -36.074219 27.5 -38.71875 C 27.207031 -40.25 26.378906 -41.171875 24.570312 -40.820312 C 21.300781 -40.1875 21.324219 -37.453125 19.03125 -37.007812 C 17.222656 -36.660156 16.988281 -39.355469 11.425781 -38.28125 C -0.535156 -35.964844 -3.691406 -20.207031 -1.820312 -10.539062 C -0.625 -4.351562 2.640625 -0.511719 7.371094 -1.425781 Z M 11.542969 -17.164062 C 9.386719 -16.746094 7.796875 -17.882812 7.339844 -20.246094 C 6.746094 -23.308594 8.382812 -27.160156 12 -27.859375 C 14.222656 -28.289062 15.882812 -27.167969 16.328125 -24.871094 C 16.894531 -21.949219 15.15625 -17.863281 11.542969 -17.164062 Z M 11.542969 -17.164062" transform="translate(157.203 215.897)"/></g></g></g><g fill="#FFE8E1" fill-opacity=".4"><g><g><path d="M 4.730469 -0.914062 C 9.316406 -1.800781 9.484375 -5.800781 8.796875 -9.347656 L 7.773438 -14.632812 C 6.953125 -18.875 10.710938 -19.960938 11.886719 -16.507812 C 15.0625 -7.167969 17.734375 -3.429688 22.53125 -4.355469 C 32.335938 -6.253906 34.746094 -20.640625 36.21875 -24.964844 C 36.730469 -26.433594 33.882812 -28.84375 32.753906 -26.101562 C 31.539062 -23.050781 28.226562 -21.542969 24.191406 -20.765625 C 20.367188 -20.023438 17.675781 -20.875 17.234375 -23.171875 C 16.910156 -24.839844 17.617188 -26.417969 19.964844 -26.945312 C 25.667969 -28.046875 28.132812 -30.976562 27.21875 -35.707031 C 26.679688 -38.488281 24.222656 -40.753906 20.050781 -39.945312 C 15.042969 -38.980469 12.597656 -34.464844 10.996094 -27.449219 C 10.523438 -25.410156 7.117188 -24.75 7.089844 -27.125 C 7.121094 -34.054688 9.375 -41.058594 10.789062 -47.171875 C 11.945312 -52.015625 10.707031 -53.9375 7.855469 -53.386719 C 2.222656 -52.296875 1.082031 -41.039062 -2.015625 -19.375 C -2.640625 -15.144531 -2.765625 -10.574219 -2.082031 -7.027344 C -1.285156 -2.925781 0.695312 -0.132812 4.730469 -0.914062 Z M 4.730469 -0.914062" transform="translate(192.946 208.986)"/></g></g></g><g fill="#FFE8E1" fill-opacity=".4"><g><g><path d="M 13.074219 -2.527344 C 21.140625 -4.085938 27.355469 -11.492188 31.28125 -24.011719 C 31.792969 -25.480469 28.605469 -27.027344 27.816406 -25.144531 C 25.617188 -19.742188 20.453125 -16.21875 15.726562 -15.304688 C 11.761719 -14.539062 8.25 -15.15625 7.78125 -17.589844 C 7.605469 -18.496094 8.261719 -18.839844 8.800781 -18.65625 C 10.574219 -18.058594 12.492188 -18.214844 14.441406 -18.589844 C 21.253906 -19.910156 24.535156 -26.457031 23.550781 -31.535156 C 22.664062 -36.125 19.007812 -39.746094 12.539062 -38.496094 C -7.417969 -34.636719 -6.46875 1.25 13.074219 -2.527344 Z M 11.625 -23.457031 C 9.398438 -23.027344 8.101562 -24.144531 7.804688 -25.675781 C 7.441406 -27.554688 8.71875 -29.894531 11.433594 -30.417969 C 13.585938 -30.835938 14.886719 -29.714844 15.183594 -28.183594 C 15.519531 -26.445312 14.335938 -23.980469 11.625 -23.457031 Z M 11.625 -23.457031" transform="translate(227.785 202.25)"/></g></g></g><g fill="#FFF6F4"><g><g><path d="M 19.703125 -2.945312 C 30.410156 -5.015625 36.476562 -12.824219 40.042969 -25.707031 C 40.484375 -27.160156 37.371094 -28.722656 36.578125 -26.839844 C 34.886719 -22.90625 30.011719 -20.878906 25.699219 -20.046875 C 16.523438 -18.273438 11.078125 -22.558594 9.867188 -28.816406 C 8.535156 -35.699219 12.042969 -43.304688 18.371094 -44.527344 C 22.265625 -45.28125 24.484375 -42.753906 22.199219 -35.167969 C 21.730469 -33.492188 23.097656 -32.382812 25.046875 -32.761719 C 30.191406 -33.757812 36.335938 -41.148438 34.765625 -49.285156 C 33.609375 -55.265625 28.460938 -58.382812 19.628906 -56.675781 C 5.304688 -53.902344 -4.671875 -36.464844 -1.402344 -19.566406 C 1.285156 -5.660156 9.828125 -1.035156 19.703125 -2.945312 Z M 19.703125 -2.945312" transform="translate(114.871 220.894)"/></g></g></g><g fill="#FFF6F4"><g><g><path d="M 7.371094 -1.425781 C 12.308594 -2.378906 15.605469 -7.707031 17.300781 -13.878906 L 17.578125 -13.929688 C 17.859375 -7.996094 20.722656 -4.007812 25.519531 -4.933594 C 33.238281 -6.425781 34.96875 -18.015625 37.125 -25.140625 C 37.5625 -26.597656 34.378906 -28.144531 33.660156 -26.273438 C 32.699219 -23.78125 31.214844 -22.121094 28.851562 -21.664062 C 25.789062 -21.074219 24.488281 -23.707031 25.871094 -29.242188 C 26.621094 -33.570312 28.011719 -36.074219 27.5 -38.71875 C 27.207031 -40.25 26.378906 -41.171875 24.570312 -40.820312 C 21.300781 -40.1875 21.324219 -37.453125 19.03125 -37.007812 C 17.222656 -36.660156 16.988281 -39.355469 11.425781 -38.28125 C -0.535156 -35.964844 -3.691406 -20.207031 -1.820312 -10.539062 C -0.625 -4.351562 2.640625 -0.511719 7.371094 -1.425781 Z M 11.542969 -17.164062 C 9.386719 -16.746094 7.796875 -17.882812 7.339844 -20.246094 C 6.746094 -23.308594 8.382812 -27.160156 12 -27.859375 C 14.222656 -28.289062 15.882812 -27.167969 16.328125 -24.871094 C 16.894531 -21.949219 15.15625 -17.863281 11.542969 -17.164062 Z M 11.542969 -17.164062" transform="translate(153.535 213.418)"/></g></g></g><g fill="#FFF6F4"><g><g><path d="M 4.730469 -0.914062 C 9.316406 -1.800781 9.484375 -5.800781 8.796875 -9.347656 L 7.773438 -14.632812 C 6.953125 -18.875 10.710938 -19.960938 11.886719 -16.507812 C 15.0625 -7.167969 17.734375 -3.429688 22.53125 -4.355469 C 32.335938 -6.253906 34.746094 -20.640625 36.21875 -24.964844 C 36.730469 -26.433594 33.882812 -28.84375 32.753906 -26.101562 C 31.539062 -23.050781 28.226562 -21.542969 24.191406 -20.765625 C 20.367188 -20.023438 17.675781 -20.875 17.234375 -23.171875 C 16.910156 -24.839844 17.617188 -26.417969 19.964844 -26.945312 C 25.667969 -28.046875 28.132812 -30.976562 27.21875 -35.707031 C 26.679688 -38.488281 24.222656 -40.753906 20.050781 -39.945312 C 15.042969 -38.980469 12.597656 -34.464844 10.996094 -27.449219 C 10.523438 -25.410156 7.117188 -24.75 7.089844 -27.125 C 7.121094 -34.054688 9.375 -41.058594 10.789062 -47.171875 C 11.945312 -52.015625 10.707031 -53.9375 7.855469 -53.386719 C 2.222656 -52.296875 1.082031 -41.039062 -2.015625 -19.375 C -2.640625 -15.144531 -2.765625 -10.574219 -2.082031 -7.027344 C -1.285156 -2.925781 0.695312 -0.132812 4.730469 -0.914062 Z M 4.730469 -0.914062" transform="translate(189.278 206.507)"/></g></g></g><g fill="#FFF6F4"><g><g><path d="M 13.074219 -2.527344 C 21.140625 -4.085938 27.355469 -11.492188 31.28125 -24.011719 C 31.792969 -25.480469 28.605469 -27.027344 27.816406 -25.144531 C 25.617188 -19.742188 20.453125 -16.21875 15.726562 -15.304688 C 11.761719 -14.539062 8.25 -15.15625 7.78125 -17.589844 C 7.605469 -18.496094 8.261719 -18.839844 8.800781 -18.65625 C 10.574219 -18.058594 12.492188 -18.214844 14.441406 -18.589844 C 21.253906 -19.910156 24.535156 -26.457031 23.550781 -31.535156 C 22.664062 -36.125 19.007812 -39.746094 12.539062 -38.496094 C -7.417969 -34.636719 -6.46875 1.25 13.074219 -2.527344 Z M 11.625 -23.457031 C 9.398438 -23.027344 8.101562 -24.144531 7.804688 -25.675781 C 7.441406 -27.554688 8.71875 -29.894531 11.433594 -30.417969 C 13.585938 -30.835938 14.886719 -29.714844 15.183594 -28.183594 C 15.519531 -26.445312 14.335938 -23.980469 11.625 -23.457031 Z M 11.625 -23.457031" transform="translate(224.118 199.77)"/></g></g></g><g fill="#FFE8E1" fill-opacity=".4"><g><g><path d="M 16.351562 -0.132812 C 26.574219 -2.109375 32.4375 -10.960938 30.433594 -21.324219 C 28.738281 -30.085938 18.722656 -34.496094 17.734375 -40.726562 C 17.0625 -44.203125 18.808594 -45.984375 21.105469 -46.425781 C 25.070312 -47.195312 25.605469 -42.175781 24.609375 -40.25 C 23.875 -38.8125 27.378906 -37.109375 27.984375 -38.453125 C 31.363281 -41.125 33.046875 -45.488281 32.238281 -49.660156 C 31.269531 -54.667969 27.199219 -58.929688 19.0625 -57.359375 C 9.816406 -55.570312 6.824219 -48.644531 8.0625 -42.246094 C 9.691406 -33.832031 17.707031 -30.042969 18.742188 -24.6875 C 19.402344 -21.28125 17.496094 -18.460938 14.15625 -17.816406 C 10.542969 -17.117188 7.929688 -19.0625 7.203125 -22.816406 C 6.460938 -26.644531 8.871094 -27.253906 8.5625 -28.851562 C 8.359375 -29.894531 7.113281 -30.375 5.375 -30.039062 C 1.269531 -29.246094 -4.984375 -24.285156 -2.875 -13.367188 C -0.800781 -2.660156 7.242188 1.628906 16.351562 -0.132812 Z M 16.351562 -0.132812" transform="translate(101.184 286.962)"/></g></g></g><g fill="#FFE8E1" fill-opacity=".4"><g><g><path d="M 7.023438 -1.359375 C 17.039062 -3.292969 19.808594 -17.679688 21.128906 -22.046875 C 21.570312 -23.503906 18.46875 -24.996094 17.664062 -23.183594 C 16.691406 -20.757812 14.722656 -19.003906 11.9375 -18.46875 C 7.835938 -17.675781 5.089844 -20.316406 5.609375 -25.46875 C 6.027344 -30.382812 6.417969 -30.601562 12.886719 -31.851562 C 15.667969 -32.390625 15.265625 -38.949219 13.386719 -38.585938 L 9.769531 -37.886719 C 8.449219 -37.632812 8.429688 -38.855469 9.042969 -41.28125 C 10.351562 -46.078125 9.03125 -48.058594 6.457031 -47.5625 C 4.71875 -47.226562 3.308594 -46.304688 2.421875 -41.949219 C 1.933594 -39.257812 0.246094 -36.046875 -3.789062 -35.265625 C -5.386719 -34.957031 -4.285156 -29.613281 -0.25 -30.394531 C -1.0625 -25.261719 -1.796875 -20.863281 -2.308594 -17.15625 C -3.714844 -7.648438 -0.765625 0.148438 7.023438 -1.359375 Z M 7.023438 -1.359375" transform="translate(137.205 279.997)"/></g></g></g><g fill="#FFE8E1" fill-opacity=".4"><g><g><path d="M 7.371094 -1.425781 C 12.308594 -2.378906 15.605469 -7.707031 17.300781 -13.878906 L 17.578125 -13.929688 C 17.859375 -7.996094 20.722656 -4.007812 25.519531 -4.933594 C 33.238281 -6.425781 34.96875 -18.015625 37.125 -25.140625 C 37.5625 -26.597656 34.378906 -28.144531 33.660156 -26.273438 C 32.699219 -23.78125 31.214844 -22.121094 28.851562 -21.664062 C 25.789062 -21.074219 24.488281 -23.707031 25.871094 -29.242188 C 26.621094 -33.570312 28.011719 -36.074219 27.5 -38.71875 C 27.207031 -40.25 26.378906 -41.171875 24.570312 -40.820312 C 21.300781 -40.1875 21.324219 -37.453125 19.03125 -37.007812 C 17.222656 -36.660156 16.988281 -39.355469 11.425781 -38.28125 C -0.535156 -35.964844 -3.691406 -20.207031 -1.820312 -10.539062 C -0.625 -4.351562 2.640625 -0.511719 7.371094 -1.425781 Z M 11.542969 -17.164062 C 9.386719 -16.746094 7.796875 -17.882812 7.339844 -20.246094 C 6.746094 -23.308594 8.382812 -27.160156 12 -27.859375 C 14.222656 -28.289062 15.882812 -27.167969 16.328125 -24.871094 C 16.894531 -21.949219 15.15625 -17.863281 11.542969 -17.164062 Z M 11.542969 -17.164062" transform="translate(156.954 276.178)"/></g></g></g><g fill="#FFE8E1" fill-opacity=".4"><g><g><path d="M 7.023438 -1.359375 C 17.039062 -3.292969 19.808594 -17.679688 21.128906 -22.046875 C 21.570312 -23.503906 18.46875 -24.996094 17.664062 -23.183594 C 16.691406 -20.757812 14.722656 -19.003906 11.9375 -18.46875 C 7.835938 -17.675781 5.089844 -20.316406 5.609375 -25.46875 C 6.027344 -30.382812 6.417969 -30.601562 12.886719 -31.851562 C 15.667969 -32.390625 15.265625 -38.949219 13.386719 -38.585938 L 9.769531 -37.886719 C 8.449219 -37.632812 8.429688 -38.855469 9.042969 -41.28125 C 10.351562 -46.078125 9.03125 -48.058594 6.457031 -47.5625 C 4.71875 -47.226562 3.308594 -46.304688 2.421875 -41.949219 C 1.933594 -39.257812 0.246094 -36.046875 -3.789062 -35.265625 C -5.386719 -34.957031 -4.285156 -29.613281 -0.25 -30.394531 C -1.0625 -25.261719 -1.796875 -20.863281 -2.308594 -17.15625 C -3.714844 -7.648438 -0.765625 0.148438 7.023438 -1.359375 Z M 7.023438 -1.359375" transform="translate(192.698 269.267)"/></g></g></g><g fill="#FFE8E1" fill-opacity=".4"><g><g><path d="M 6.703125 -40.324219 C 10.320312 -41.023438 12.902344 -42.964844 12.484375 -47.355469 C 12 -51.734375 8.890625 -52.507812 5.347656 -51.820312 C 1.519531 -51.082031 -1.324219 -49.015625 -0.371094 -44.078125 C 0.339844 -40.390625 3.363281 -39.679688 6.703125 -40.324219 Z M 6.257812 -1.210938 C 15.230469 -2.945312 17.042969 -17.433594 18.542969 -21.621094 C 18.996094 -23.007812 15.882812 -24.570312 15.089844 -22.683594 C 14.105469 -20.328125 13.050781 -18.683594 10.964844 -18.28125 C 9.089844 -17.917969 7.609375 -18.855469 7.164062 -21.152344 C 6.4375 -24.90625 8.679688 -30.101562 7.859375 -34.34375 C 7.429688 -36.570312 6.351562 -37.296875 4.890625 -37.015625 C 0.925781 -36.25 -0.835938 -30.066406 -2.085938 -19.363281 C -2.484375 -15.824219 -2.453125 -11.933594 -1.820312 -8.664062 C -0.878906 -3.796875 1.597656 -0.308594 6.257812 -1.210938 Z M 6.257812 -1.210938" transform="translate(212.447 265.448)"/></g></g></g><g fill="#FFE8E1" fill-opacity=".4"><g><g><path d="M 31.015625 -25.761719 C 29.816406 -23.007812 28.128906 -21.671875 26.113281 -21.28125 L 25.625 -21.1875 C 25.875 -23.617188 25.753906 -26.117188 25.28125 -28.550781 C 23.589844 -37.3125 18.519531 -39.652344 12.816406 -38.546875 C 1.761719 -36.410156 -3.859375 -22.195312 -1.839844 -11.761719 C -0.441406 -4.53125 4.9375 -0.953125 11.195312 -2.164062 C 16.410156 -3.171875 20.757812 -7.1875 23.320312 -12.589844 L 24.152344 -12.75 C 30.898438 -14.054688 33.285156 -20 34.480469 -24.628906 C 34.9375 -26.378906 31.621094 -27.105469 31.015625 -25.761719 Z M 12.375 -17.324219 C 9.734375 -16.816406 8.425781 -18.367188 8.035156 -20.382812 C 7.441406 -23.441406 9.078125 -27.292969 12.484375 -27.953125 C 15.199219 -28.476562 16.632812 -27.023438 17.023438 -25.003906 C 17.589844 -22.085938 15.851562 -18 12.375 -17.324219 Z M 12.375 -17.324219" transform="translate(229.554 262.14)"/></g></g></g><g fill="#FFE8E1" fill-opacity=".4"><g><g><path d="M 4.382812 -0.847656 C 9.179688 -1.773438 9.34375 -5.773438 8.65625 -9.320312 L 8.054688 -12.449219 C 6.855469 -18.640625 9.21875 -25.082031 13.25 -25.863281 C 14.851562 -26.171875 16.054688 -25.539062 16.363281 -23.941406 C 16.914062 -21.089844 14.894531 -15.867188 15.917969 -10.582031 C 16.671875 -6.6875 18.84375 -3.644531 23.226562 -4.492188 C 32.613281 -6.304688 34.734375 -20.710938 36.21875 -24.964844 C 36.730469 -26.433594 33.542969 -27.984375 32.753906 -26.101562 C 31.765625 -23.746094 30.726562 -22.027344 28.640625 -21.625 C 26.347656 -21.183594 25.089844 -22.09375 24.632812 -24.457031 C 23.960938 -27.933594 25.753906 -30.589844 25.042969 -34.273438 C 24.371094 -37.753906 21.789062 -40.28125 17.546875 -39.460938 C 14.488281 -38.871094 11.988281 -36.871094 9.898438 -33.871094 C 8.101562 -31.214844 6.550781 -31.78125 6.027344 -34.492188 C 5.757812 -35.882812 5.097656 -37.054688 3.222656 -36.691406 C 0.648438 -36.195312 -1.363281 -27.941406 -2.085938 -19.363281 C -2.582031 -13.351562 -2.308594 -8.210938 -1.675781 -4.941406 C -1.113281 -2.019531 1.113281 -0.214844 4.382812 -0.847656 Z M 4.382812 -0.847656" transform="translate(262.654 255.74)"/></g></g></g><g fill="#FFF6F4"><g><g><path d="M 16.351562 -0.132812 C 26.574219 -2.109375 32.4375 -10.960938 30.433594 -21.324219 C 28.738281 -30.085938 18.722656 -34.496094 17.734375 -40.726562 C 17.0625 -44.203125 18.808594 -45.984375 21.105469 -46.425781 C 25.070312 -47.195312 25.605469 -42.175781 24.609375 -40.25 C 23.875 -38.8125 27.378906 -37.109375 27.984375 -38.453125 C 31.363281 -41.125 33.046875 -45.488281 32.238281 -49.660156 C 31.269531 -54.667969 27.199219 -58.929688 19.0625 -57.359375 C 9.816406 -55.570312 6.824219 -48.644531 8.0625 -42.246094 C 9.691406 -33.832031 17.707031 -30.042969 18.742188 -24.6875 C 19.402344 -21.28125 17.496094 -18.460938 14.15625 -17.816406 C 10.542969 -17.117188 7.929688 -19.0625 7.203125 -22.816406 C 6.460938 -26.644531 8.871094 -27.253906 8.5625 -28.851562 C 8.359375 -29.894531 7.113281 -30.375 5.375 -30.039062 C 1.269531 -29.246094 -4.984375 -24.285156 -2.875 -13.367188 C -0.800781 -2.660156 7.242188 1.628906 16.351562 -0.132812 Z M 16.351562 -0.132812" transform="translate(97.516 284.483)"/></g></g></g><g fill="#FFF6F4"><g><g><path d="M 7.023438 -1.359375 C 17.039062 -3.292969 19.808594 -17.679688 21.128906 -22.046875 C 21.570312 -23.503906 18.46875 -24.996094 17.664062 -23.183594 C 16.691406 -20.757812 14.722656 -19.003906 11.9375 -18.46875 C 7.835938 -17.675781 5.089844 -20.316406 5.609375 -25.46875 C 6.027344 -30.382812 6.417969 -30.601562 12.886719 -31.851562 C 15.667969 -32.390625 15.265625 -38.949219 13.386719 -38.585938 L 9.769531 -37.886719 C 8.449219 -37.632812 8.429688 -38.855469 9.042969 -41.28125 C 10.351562 -46.078125 9.03125 -48.058594 6.457031 -47.5625 C 4.71875 -47.226562 3.308594 -46.304688 2.421875 -41.949219 C 1.933594 -39.257812 0.246094 -36.046875 -3.789062 -35.265625 C -5.386719 -34.957031 -4.285156 -29.613281 -0.25 -30.394531 C -1.0625 -25.261719 -1.796875 -20.863281 -2.308594 -17.15625 C -3.714844 -7.648438 -0.765625 0.148438 7.023438 -1.359375 Z M 7.023438 -1.359375" transform="translate(133.537 277.518)"/></g></g></g><g fill="#FFF6F4"><g><g><path d="M 7.371094 -1.425781 C 12.308594 -2.378906 15.605469 -7.707031 17.300781 -13.878906 L 17.578125 -13.929688 C 17.859375 -7.996094 20.722656 -4.007812 25.519531 -4.933594 C 33.238281 -6.425781 34.96875 -18.015625 37.125 -25.140625 C 37.5625 -26.597656 34.378906 -28.144531 33.660156 -26.273438 C 32.699219 -23.78125 31.214844 -22.121094 28.851562 -21.664062 C 25.789062 -21.074219 24.488281 -23.707031 25.871094 -29.242188 C 26.621094 -33.570312 28.011719 -36.074219 27.5 -38.71875 C 27.207031 -40.25 26.378906 -41.171875 24.570312 -40.820312 C 21.300781 -40.1875 21.324219 -37.453125 19.03125 -37.007812 C 17.222656 -36.660156 16.988281 -39.355469 11.425781 -38.28125 C -0.535156 -35.964844 -3.691406 -20.207031 -1.820312 -10.539062 C -0.625 -4.351562 2.640625 -0.511719 7.371094 -1.425781 Z M 11.542969 -17.164062 C 9.386719 -16.746094 7.796875 -17.882812 7.339844 -20.246094 C 6.746094 -23.308594 8.382812 -27.160156 12 -27.859375 C 14.222656 -28.289062 15.882812 -27.167969 16.328125 -24.871094 C 16.894531 -21.949219 15.15625 -17.863281 11.542969 -17.164062 Z M 11.542969 -17.164062" transform="translate(153.287 273.7)"/></g></g></g><g fill="#FFF6F4"><g><g><path d="M 7.023438 -1.359375 C 17.039062 -3.292969 19.808594 -17.679688 21.128906 -22.046875 C 21.570312 -23.503906 18.46875 -24.996094 17.664062 -23.183594 C 16.691406 -20.757812 14.722656 -19.003906 11.9375 -18.46875 C 7.835938 -17.675781 5.089844 -20.316406 5.609375 -25.46875 C 6.027344 -30.382812 6.417969 -30.601562 12.886719 -31.851562 C 15.667969 -32.390625 15.265625 -38.949219 13.386719 -38.585938 L 9.769531 -37.886719 C 8.449219 -37.632812 8.429688 -38.855469 9.042969 -41.28125 C 10.351562 -46.078125 9.03125 -48.058594 6.457031 -47.5625 C 4.71875 -47.226562 3.308594 -46.304688 2.421875 -41.949219 C 1.933594 -39.257812 0.246094 -36.046875 -3.789062 -35.265625 C -5.386719 -34.957031 -4.285156 -29.613281 -0.25 -30.394531 C -1.0625 -25.261719 -1.796875 -20.863281 -2.308594 -17.15625 C -3.714844 -7.648438 -0.765625 0.148438 7.023438 -1.359375 Z M 7.023438 -1.359375" transform="translate(189.03 266.788)"/></g></g></g><g fill="#FFF6F4"><g><g><path d="M 6.703125 -40.324219 C 10.320312 -41.023438 12.902344 -42.964844 12.484375 -47.355469 C 12 -51.734375 8.890625 -52.507812 5.347656 -51.820312 C 1.519531 -51.082031 -1.324219 -49.015625 -0.371094 -44.078125 C 0.339844 -40.390625 3.363281 -39.679688 6.703125 -40.324219 Z M 6.257812 -1.210938 C 15.230469 -2.945312 17.042969 -17.433594 18.542969 -21.621094 C 18.996094 -23.007812 15.882812 -24.570312 15.089844 -22.683594 C 14.105469 -20.328125 13.050781 -18.683594 10.964844 -18.28125 C 9.089844 -17.917969 7.609375 -18.855469 7.164062 -21.152344 C 6.4375 -24.90625 8.679688 -30.101562 7.859375 -34.34375 C 7.429688 -36.570312 6.351562 -37.296875 4.890625 -37.015625 C 0.925781 -36.25 -0.835938 -30.066406 -2.085938 -19.363281 C -2.484375 -15.824219 -2.453125 -11.933594 -1.820312 -8.664062 C -0.878906 -3.796875 1.597656 -0.308594 6.257812 -1.210938 Z M 6.257812 -1.210938" transform="translate(208.78 262.97)"/></g></g></g><g fill="#FFF6F4"><g><g><path d="M 31.015625 -25.761719 C 29.816406 -23.007812 28.128906 -21.671875 26.113281 -21.28125 L 25.625 -21.1875 C 25.875 -23.617188 25.753906 -26.117188 25.28125 -28.550781 C 23.589844 -37.3125 18.519531 -39.652344 12.816406 -38.546875 C 1.761719 -36.410156 -3.859375 -22.195312 -1.839844 -11.761719 C -0.441406 -4.53125 4.9375 -0.953125 11.195312 -2.164062 C 16.410156 -3.171875 20.757812 -7.1875 23.320312 -12.589844 L 24.152344 -12.75 C 30.898438 -14.054688 33.285156 -20 34.480469 -24.628906 C 34.9375 -26.378906 31.621094 -27.105469 31.015625 -25.761719 Z M 12.375 -17.324219 C 9.734375 -16.816406 8.425781 -18.367188 8.035156 -20.382812 C 7.441406 -23.441406 9.078125 -27.292969 12.484375 -27.953125 C 15.199219 -28.476562 16.632812 -27.023438 17.023438 -25.003906 C 17.589844 -22.085938 15.851562 -18 12.375 -17.324219 Z M 12.375 -17.324219" transform="translate(225.886 259.662)"/></g></g></g><g fill="#FFF6F4"><g><g><path d="M 4.382812 -0.847656 C 9.179688 -1.773438 9.34375 -5.773438 8.65625 -9.320312 L 8.054688 -12.449219 C 6.855469 -18.640625 9.21875 -25.082031 13.25 -25.863281 C 14.851562 -26.171875 16.054688 -25.539062 16.363281 -23.941406 C 16.914062 -21.089844 14.894531 -15.867188 15.917969 -10.582031 C 16.671875 -6.6875 18.84375 -3.644531 23.226562 -4.492188 C 32.613281 -6.304688 34.734375 -20.710938 36.21875 -24.964844 C 36.730469 -26.433594 33.542969 -27.984375 32.753906 -26.101562 C 31.765625 -23.746094 30.726562 -22.027344 28.640625 -21.625 C 26.347656 -21.183594 25.089844 -22.09375 24.632812 -24.457031 C 23.960938 -27.933594 25.753906 -30.589844 25.042969 -34.273438 C 24.371094 -37.753906 21.789062 -40.28125 17.546875 -39.460938 C 14.488281 -38.871094 11.988281 -36.871094 9.898438 -33.871094 C 8.101562 -31.214844 6.550781 -31.78125 6.027344 -34.492188 C 5.757812 -35.882812 5.097656 -37.054688 3.222656 -36.691406 C 0.648438 -36.195312 -1.363281 -27.941406 -2.085938 -19.363281 C -2.582031 -13.351562 -2.308594 -8.210938 -1.675781 -4.941406 C -1.113281 -2.019531 1.113281 -0.214844 4.382812 -0.847656 Z M 4.382812 -0.847656" transform="translate(258.987 253.261)"/></g></g></g><g clip-path="url(#c)"><path fill="#FDBABE" d="M 328.738281 158.410156 C 329.183594 157.855469 329.140625 157.050781 328.636719 156.546875 L 325.835938 153.746094 C 325.328125 153.242188 324.527344 153.195312 323.96875 153.640625 L 306.285156 167.804688 L 314.585938 176.105469 Z M 286.625 164.945312 L 285.515625 163.835938 L 297.597656 151.753906 C 297.800781 151.859375 298.015625 151.933594 298.242188 151.933594 C 298.597656 151.933594 298.957031 151.796875 299.230469 151.523438 C 299.675781 151.078125 299.742188 150.421875 299.464844 149.890625 L 302.03125 147.324219 C 302.578125 146.777344 302.578125 145.890625 302.03125 145.34375 C 301.488281 144.796875 300.597656 144.796875 300.050781 145.34375 L 297.484375 147.910156 C 296.953125 147.632812 296.296875 147.699219 295.851562 148.144531 C 295.40625 148.589844 295.339844 149.246094 295.617188 149.777344 L 283.535156 161.859375 L 282.425781 160.75 C 281.878906 160.203125 280.992188 160.203125 280.445312 160.75 L 270.644531 170.554688 C 270.097656 171.097656 270.097656 171.988281 270.644531 172.535156 L 271.753906 173.644531 L 270.644531 174.75 C 270.097656 175.296875 270.097656 176.1875 270.644531 176.730469 C 270.917969 177.007812 271.277344 177.140625 271.636719 177.140625 C 271.992188 177.140625 272.351562 177.003906 272.625 176.730469 L 273.734375 175.621094 L 274.84375 176.730469 C 275.121094 177.007812 275.476562 177.140625 275.835938 177.140625 C 276.195312 177.140625 276.554688 177.003906 276.828125 176.730469 L 286.628906 166.929688 C 287.171875 166.378906 287.171875 165.496094 286.625 164.945312 Z M 337.039062 180.351562 C 336.492188 179.804688 335.605469 179.804688 335.058594 180.351562 L 332.492188 182.917969 C 331.960938 182.640625 331.304688 182.707031 330.859375 183.152344 C 330.414062 183.597656 330.347656 184.253906 330.625 184.785156 L 318.542969 196.867188 L 317.433594 195.757812 C 316.886719 195.210938 316 195.210938 315.453125 195.757812 L 305.652344 205.5625 C 305.105469 206.105469 305.105469 206.996094 305.652344 207.542969 L 306.761719 208.648438 L 305.652344 209.757812 C 305.105469 210.304688 305.105469 211.195312 305.652344 211.738281 C 305.925781 212.015625 306.285156 212.148438 306.644531 212.148438 C 307 212.148438 307.359375 212.011719 307.632812 211.738281 L 308.742188 210.628906 L 309.851562 211.738281 C 310.128906 212.015625 310.484375 212.148438 310.84375 212.148438 C 311.203125 212.148438 311.5625 212.011719 311.835938 211.738281 L 321.636719 201.9375 C 322.183594 201.390625 322.183594 200.503906 321.636719 199.957031 L 320.527344 198.847656 L 332.613281 186.765625 C 332.8125 186.871094 333.03125 186.945312 333.253906 186.945312 C 333.613281 186.945312 333.96875 186.804688 334.246094 186.535156 C 334.691406 186.089844 334.753906 185.429688 334.476562 184.902344 L 337.046875 182.332031 C 337.585938 181.785156 337.585938 180.898438 337.039062 180.351562 Z M 311.0625 195.675781 C 311.082031 195.65625 311.109375 195.652344 311.128906 195.632812 L 323.5 183.261719 C 323.703125 183.367188 323.917969 183.441406 324.140625 183.441406 C 324.5 183.441406 324.859375 183.304688 325.132812 183.03125 C 325.578125 182.585938 325.644531 181.925781 325.367188 181.398438 L 326.535156 180.230469 C 327.082031 179.683594 327.082031 178.800781 326.535156 178.25 C 325.992188 177.703125 325.101562 177.703125 324.558594 178.25 L 323.390625 179.417969 C 322.859375 179.140625 322.203125 179.207031 321.757812 179.652344 C 321.3125 180.097656 321.246094 180.753906 321.523438 181.285156 L 309.441406 193.367188 L 307.21875 191.144531 L 309.027344 189.335938 C 309.574219 188.789062 309.574219 187.902344 309.027344 187.355469 L 307.117188 185.441406 L 312.824219 178.304688 L 304.085938 169.566406 L 296.953125 175.277344 L 295.023438 173.351562 C 294.480469 172.804688 293.589844 172.804688 293.042969 173.351562 L 291.234375 175.160156 L 289.015625 172.941406 L 301.101562 160.859375 C 301.300781 160.964844 301.515625 161.039062 301.742188 161.039062 C 302.101562 161.039062 302.457031 160.902344 302.734375 160.628906 C 303.179688 160.183594 303.242188 159.527344 302.964844 158.996094 L 304.132812 157.828125 C 304.679688 157.28125 304.679688 156.394531 304.132812 155.847656 C 303.585938 155.304688 302.699219 155.304688 302.152344 155.847656 L 300.984375 157.015625 C 300.457031 156.738281 299.796875 156.804688 299.351562 157.25 C 298.90625 157.695312 298.84375 158.351562 299.121094 158.882812 L 286.75 171.253906 C 286.730469 171.273438 286.722656 171.296875 286.707031 171.316406 C 286.378906 171.335938 286.054688 171.457031 285.800781 171.707031 L 278.882812 178.628906 C 278.457031 179.054688 278.347656 179.707031 278.617188 180.246094 L 282.527344 188.0625 L 279.039062 191.550781 C 278.496094 192.097656 278.496094 192.984375 279.039062 193.53125 C 279.316406 193.804688 279.671875 193.941406 280.03125 193.941406 C 280.390625 193.941406 280.75 193.804688 281.023438 193.53125 L 283.847656 190.707031 L 284.234375 191.472656 L 284.234375 193.941406 C 284.234375 194.316406 284.382812 194.671875 284.640625 194.933594 L 287.441406 197.734375 C 287.707031 198 288.0625 198.144531 288.433594 198.144531 L 290.902344 198.144531 L 291.667969 198.527344 L 288.84375 201.355469 C 288.296875 201.898438 288.296875 202.789062 288.84375 203.335938 C 289.117188 203.609375 289.476562 203.742188 289.835938 203.742188 C 290.195312 203.742188 290.550781 203.605469 290.828125 203.335938 L 294.3125 199.847656 L 302.132812 203.757812 C 302.675781 204.027344 303.324219 203.921875 303.75 203.492188 L 310.671875 196.574219 C 310.917969 196.324219 311.039062 196 311.0625 195.675781 Z M 290.324219 185.449219 L 290.101562 185.230469 L 287.613281 182.742188 L 294.035156 176.320312 L 296.746094 179.027344 Z M 299.636719 194.765625 L 297.28125 192.410156 L 296.9375 192.070312 L 303.359375 185.648438 L 306.058594 188.347656 Z M 299.636719 194.765625"/></g><g clip-path="url(#d)"><path fill="#FEEDAA" d="M 78.101562 206.402344 C 78.101562 219.863281 67.1875 230.777344 53.726562 230.777344 C 67.1875 230.777344 78.101562 241.6875 78.101562 255.152344 C 78.101562 241.6875 89.011719 230.777344 102.476562 230.777344 C 89.011719 230.777344 78.101562 219.863281 78.101562 206.402344 Z M 78.101562 206.402344"/></g><g clip-path="url(#e)"><path fill="#FEEDAA" d="M 96.75 191.183594 C 96.75 198.019531 91.210938 203.558594 84.375 203.558594 C 91.210938 203.558594 96.75 209.097656 96.75 215.933594 C 96.75 209.097656 102.292969 203.558594 109.125 203.558594 C 102.292969 203.558594 96.75 198.019531 96.75 191.183594 Z M 96.75 191.183594"/></g><g clip-path="url(#f)"><path fill="#FDBABE" d="M 175.109375 337.527344 L 181.21875 337.527344 L 182.488281 324.667969 L 175.109375 324.667969 Z M 175.109375 337.527344"/></g><g clip-path="url(#g)"><path fill="#FDBABE" d="M 188.925781 334.75 L 191.035156 324.664062 L 183.671875 324.664062 L 182.40625 337.527344 L 185.488281 337.527344 C 187.144531 337.527344 188.589844 336.359375 188.925781 334.75 Z M 188.925781 334.75"/></g><g clip-path="url(#h)"><path fill="#FDBABE" d="M 167.8125 337.527344 L 173.925781 337.527344 L 173.925781 324.667969 L 166.542969 324.667969 Z M 167.8125 337.527344"/></g><g clip-path="url(#i)"><path fill="#FDBABE" d="M 158 324.667969 L 160.105469 334.75 C 160.445312 336.359375 161.890625 337.527344 163.542969 337.527344 L 166.628906 337.527344 L 165.363281 324.667969 Z M 158 324.667969"/></g><g clip-path="url(#j)"><path fill="#FDBABE" d="M 192.15625 316.910156 L 169.34375 316.910156 C 169.019531 316.910156 168.753906 316.648438 168.753906 316.324219 C 168.753906 316.003906 169.019531 315.738281 169.34375 315.738281 L 187.847656 315.738281 C 188.734375 315.738281 189.566406 315.398438 190.191406 314.769531 C 190.824219 314.148438 191.164062 313.316406 191.164062 312.445312 C 191.164062 310.625 189.675781 309.148438 187.847656 309.148438 L 181.066406 309.148438 C 180.742188 309.148438 180.476562 308.886719 180.476562 308.5625 C 180.476562 308.234375 180.742188 307.976562 181.066406 307.976562 L 183.109375 307.976562 C 183.992188 307.976562 184.828125 307.632812 185.460938 307.007812 C 186.085938 306.382812 186.429688 305.554688 186.429688 304.6875 C 186.429688 302.871094 184.941406 301.394531 183.109375 301.394531 L 165.925781 301.394531 C 165.042969 301.394531 164.210938 301.734375 163.585938 302.359375 C 162.953125 302.976562 162.609375 303.804688 162.609375 304.6875 C 162.609375 306.5 164.097656 307.976562 165.925781 307.976562 L 176.070312 307.976562 C 176.394531 307.976562 176.660156 308.234375 176.660156 308.5625 C 176.660156 308.886719 176.394531 309.148438 176.070312 309.148438 L 161.1875 309.148438 C 160.300781 309.148438 159.46875 309.488281 158.84375 310.109375 C 158.210938 310.738281 157.867188 311.566406 157.867188 312.445312 C 157.867188 314.261719 159.355469 315.738281 161.1875 315.738281 L 164.085938 315.738281 C 164.414062 315.738281 164.679688 316.003906 164.679688 316.324219 C 164.679688 316.648438 164.410156 316.910156 164.085938 316.910156 L 156.875 316.910156 C 155.996094 316.910156 155.15625 317.257812 154.527344 317.878906 C 153.898438 318.503906 153.558594 319.324219 153.558594 320.199219 C 153.558594 322.015625 155.046875 323.492188 156.875 323.492188 L 192.15625 323.492188 C 193.042969 323.492188 193.875 323.148438 194.507812 322.519531 C 195.132812 321.898438 195.476562 321.074219 195.476562 320.199219 C 195.476562 318.386719 193.988281 316.910156 192.15625 316.910156 Z M 192.15625 316.910156"/></g><g clip-path="url(#k)"><path fill="#FDBABE" d="M 169.210938 286.527344 C 168.886719 286.527344 168.621094 286.789062 168.621094 287.113281 C 168.621094 287.4375 168.886719 287.699219 169.210938 287.699219 C 171.875 287.699219 174.046875 289.851562 174.046875 292.496094 C 174.046875 292.558594 174.0625 292.613281 174.082031 292.671875 C 172.066406 292.894531 170.492188 294.59375 170.492188 296.652344 C 170.492188 298.859375 172.304688 300.660156 174.53125 300.660156 C 176.757812 300.660156 178.566406 298.859375 178.566406 296.652344 C 178.566406 294.664062 177.101562 293.015625 175.183594 292.703125 C 175.207031 292.636719 175.226562 292.570312 175.226562 292.496094 C 175.226562 289.207031 172.527344 286.527344 169.210938 286.527344 Z M 169.210938 286.527344"/></g><g clip-path="url(#l)"><g clip-path="url(#m)"><path fill="#FDBABE" d="M 74.773438 189.066406 C 73.964844 187.820312 73.523438 187.136719 72.105469 186.753906 C 70.691406 186.382812 69.960938 186.742188 68.648438 187.417969 C 67.089844 188.214844 64.972656 189.316406 61.757812 188.441406 C 58.558594 187.582031 57.253906 185.566406 56.300781 184.09375 C 55.496094 182.851562 55.054688 182.164062 53.636719 181.785156 C 52.222656 181.40625 51.496094 181.773438 50.183594 182.449219 C 48.625 183.242188 46.511719 184.347656 43.296875 183.472656 C 40.097656 182.613281 38.792969 180.597656 37.839844 179.125 C 37.726562 178.953125 37.625 178.792969 37.523438 178.640625 L 37.523438 186.941406 C 37.523438 188.285156 38.339844 189.488281 39.582031 189.976562 L 76.917969 204.640625 C 78.511719 205.265625 80.226562 204.085938 80.226562 202.367188 L 80.226562 193.410156 C 77.03125 192.550781 75.726562 190.535156 74.773438 189.066406 Z M 74.773438 189.066406"/></g></g><g clip-path="url(#n)"><g clip-path="url(#o)"><path fill="#FDBABE" d="M 41.878906 176.480469 C 42.683594 177.722656 43.125 178.40625 44.539062 178.789062 C 45.96875 179.164062 46.683594 178.796875 47.996094 178.125 C 49.554688 177.328125 51.675781 176.226562 54.882812 177.101562 C 58.082031 177.960938 59.386719 179.976562 60.339844 181.449219 C 61.144531 182.691406 61.589844 183.375 63.003906 183.757812 C 64.429688 184.136719 65.144531 183.769531 66.460938 183.09375 C 68.019531 182.300781 70.152344 181.207031 73.351562 182.070312 C 76.550781 182.929688 77.855469 184.945312 78.808594 186.417969 C 79.316406 187.199219 79.679688 187.757812 80.226562 188.160156 L 80.226562 178.445312 C 80.226562 177.101562 79.410156 175.898438 78.167969 175.410156 L 41.9375 161.179688 C 39.8125 160.34375 37.523438 161.921875 37.523438 164.214844 L 37.523438 172.5 C 39.9375 173.480469 41.042969 175.1875 41.878906 176.480469 Z M 41.878906 176.480469"/></g></g><g clip-path="url(#p)"><path fill="#FDBABE" d="M 78.402344 173.402344 L 40.730469 159.28125 C 40.332031 159.132812 40.355469 158.554688 40.765625 158.441406 L 65.449219 151.53125 C 66.429688 151.257812 67.460938 151.726562 67.902344 152.648438 L 79.253906 172.390625 C 79.582031 172.960938 79.015625 173.632812 78.402344 173.402344 Z M 78.402344 173.402344"/></g></svg>